<svg id="Capa_1" enable-background="new 0 0 512 512" height="512" viewBox="0 0 512 512" width="512" xmlns="http://www.w3.org/2000/svg"><g><g><g><g><g><g><g><g><g><circle cx="256" cy="256" fill="#ff6c52" r="256"/></g></g></g></g></g></g></g></g><g fill="#f92814"><path d="m109.822 236.889-17.53 115.048 160.038 160.037c1.221.017 2.444.026 3.67.026 37.814 0 73.714-8.199 106.018-22.916z"/><path d="m217.711 318.362 161.881 161.881c78.943-43.601 132.408-127.679 132.408-224.243 0-8.436-.408-16.776-1.206-25.002l-86.366-86.366z"/></g><g><g><path d="m326.308 110.888c-72.181.001-130.696 44.502-130.696 99.398 0 20.477 8.143 39.508 22.099 55.322v52.755l47.911-20.024c18.134 7.243 38.781 11.342 60.686 11.342 72.181-.001 130.696-44.502 130.696-99.398-.001-54.895-58.515-99.396-130.696-99.395z" fill="#fff"/></g></g><g><g><path d="m326.308 110.888c-.103 0-.205.003-.308.003v198.787c.103 0 .205.003.307.003 72.181 0 130.696-44.502 130.696-99.397 0-54.896-58.514-99.397-130.695-99.396z" fill="#e9edf5"/></g></g><g><g><path d="m125.242 252.309-38.015-38.015c-5.868-5.868-15.382-5.868-21.25 0l-23.363 23.363c-14.494 21.768 9.487 74.277 56.133 120.923s99.155 70.627 120.923 56.133l23.363-23.363c5.868-5.868 5.868-15.382 0-21.25l-38.015-38.015c-5.868-5.868-15.382-5.868-21.25 0l-20.531 20.531-58.525-58.525 20.531-20.531c5.868-5.869 5.868-15.383-.001-21.251z" fill="#ffce00"/></g></g><g><g><circle cx="258.217" cy="212.533" fill="#9196aa" r="20.394"/></g><g><circle cx="394.398" cy="212.533" fill="#707789" r="20.394"/></g></g><g><circle cx="326.307" cy="212.533" fill="#9196aa" r="20.394"/></g><g><path d="m326.307 192.14c-.104 0-.204.014-.307.015v40.757c.103.001.204.015.307.015 11.263 0 20.394-9.13 20.394-20.394s-9.13-20.393-20.394-20.393z" fill="#707789"/></g></g></svg>