<?xml version="1.0" encoding="iso-8859-1"?>
<!-- Generator: Adobe Illustrator 19.0.0, SVG Export Plug-In . SVG Version: 6.00 Build 0)  -->
<svg version="1.1" id="Capa_1" xmlns="http://www.w3.org/2000/svg" xmlns:xlink="http://www.w3.org/1999/xlink" x="0px" y="0px"
	 viewBox="0 0 512 512" style="enable-background:new 0 0 512 512;" xml:space="preserve">
<circle style="fill:#FF9451;" cx="256" cy="256" r="256"/>
<path style="fill:#F7674F;" d="M512,256c0-7.207-0.313-14.341-0.897-21.398L426.5,150l-341,212l149.103,149.102
	C241.659,511.687,248.792,512,256,512C397.385,512,512,397.385,512,256z"/>
<rect x="85.5" y="150" style="fill:#0074A3;" width="341" height="212"/>
<rect x="255.95" y="150" style="fill:#005C83;" width="170.55" height="212"/>
<polygon style="fill:#008CC3;" points="426.5,362 256,206 85.5,362 "/>
<polygon style="fill:#0074A3;" points="256,206 255.952,206.044 255.952,362 426.5,362 "/>
<polygon style="fill:#005C83;" points="85.5,150 255.952,305.956 426.5,150 "/>
<polygon style="fill:#00263F;" points="426.5,150 255.952,150 255.952,305.956 255.952,305.956 "/>
<g>
</g>
<g>
</g>
<g>
</g>
<g>
</g>
<g>
</g>
<g>
</g>
<g>
</g>
<g>
</g>
<g>
</g>
<g>
</g>
<g>
</g>
<g>
</g>
<g>
</g>
<g>
</g>
<g>
</g>
</svg>
