<?xml version="1.0" encoding="iso-8859-1"?>
<!-- Generator: Adobe Illustrator 21.0.0, SVG Export Plug-In . SVG Version: 6.00 Build 0)  -->
<svg xmlns="http://www.w3.org/2000/svg" xmlns:xlink="http://www.w3.org/1999/xlink" version="1.1" id="Capa_1" x="0px" y="0px" viewBox="0 0 512 512" style="enable-background:new 0 0 512 512;" xml:space="preserve" width="512" height="512">
<g>
	<g>
		<g>
			<g>
				<g>
					<g>
						<g>
							<g>
								<g>
									<g>
										<g>
											<g>
												<g>
													<circle style="fill:#00DFC1;" cx="256" cy="256" r="256"/>
												</g>
											</g>
										</g>
									</g>
								</g>
							</g>
						</g>
					</g>
				</g>
			</g>
		</g>
	</g>
	<path style="fill:#00AD95;" d="M512,256c0-13.191-1-26.148-2.924-38.802l-92.068-92.068   c-17.379-18.654-38.596-33.994-62.802-44.693l-12.129,27.439l83.202,83.935c4.665,10.783,8.178,22.112,10.415,33.813   l-54.063-54.122c-2.138-2.196-4.367-4.318-6.686-6.358l-19.814,22.526c19.652,17.286,30.924,42.191,30.924,68.33   c0,3.689-0.229,7.353-0.672,10.974L268.577,151.896c-3.049-3.525-7.549-5.757-12.577-5.757c-8.592,0-15.665,6.506-16.56,14.861   l-81.646-80.563C88.313,111.149,43.417,180.063,43.417,256c0,54.168,22.849,104.757,61.166,140.461l112.615,112.615   C229.852,511,242.809,512,256,512C397.385,512,512,397.385,512,256z"/>
	<g>
		<g>
			<g>
				<circle style="fill:#FFAA20;" cx="256" cy="162.796" r="16.656"/>
			</g>
			<g>
				<path style="fill:#FF8900;" d="M272.658,162.794c0,2.465-0.538,4.807-1.502,6.916c-2.623,5.745-8.423,9.742-15.156,9.742      v-33.311C265.198,146.141,272.658,153.596,272.658,162.794z"/>
			</g>
			<g>
				<circle style="fill:#FFE670;" cx="256" cy="321.029" r="21.601"/>
			</g>
			<g>
				<g>
					<path style="fill:#FFD400;" d="M277.603,321.029c0,11.93-9.673,21.603-21.603,21.603v-43.206c4.925,0,9.465,1.65,13.096,4.426       C274.268,307.794,277.603,314.024,277.603,321.029z"/>
				</g>
			</g>
			<g>
				<path style="fill:#FFD400;" d="M319.241,303.852H192.759v-72.09c0-34.927,28.314-63.241,63.241-63.241h0      c34.927,0,63.241,28.314,63.241,63.241V303.852z"/>
			</g>
			<g>
				<path style="fill:#FFAA20;" d="M256,168.521L256,168.521v135.331h63.241v-72.09C319.241,196.835,290.927,168.521,256,168.521z"/>
			</g>
			<g>
				<path style="fill:#FFAA20;" d="M338.5,321.029h-165v0c0-13.798,11.186-24.984,24.984-24.984h115.032      C327.314,296.045,338.5,307.231,338.5,321.029L338.5,321.029z"/>
			</g>
			<g>
				<path style="fill:#FF8900;" d="M313.516,296.045h-57.502L256,296.047v24.982l0.002,0H338.5      C338.5,307.231,327.314,296.045,313.516,296.045z"/>
			</g>
		</g>
		<g>
			<g>
				<path style="fill:#FFFFFF;" d="M157.794,431.563C88.313,400.851,43.417,331.938,43.417,256S88.313,111.149,157.794,80.437      l12.129,27.439C111.298,133.79,73.417,191.932,73.417,256s37.88,122.21,96.505,148.125L157.794,431.563z"/>
			</g>
			<g>
				<path style="fill:#FFF5CB;" d="M354.206,431.563l-12.129-27.438c58.625-25.914,96.506-84.056,96.506-148.125      s-37.881-122.21-96.506-148.124l12.129-27.439C423.688,111.149,468.583,180.062,468.583,256S423.688,400.851,354.206,431.563z"/>
			</g>
		</g>
		<g>
			<g>
				<path style="fill:#FFFFFF;" d="M137.056,346.856c-26.127-22.98-41.11-56.096-41.11-90.856s14.984-67.876,41.11-90.856      l19.813,22.526c-19.652,17.286-30.924,42.191-30.924,68.33s11.271,51.044,30.924,68.33L137.056,346.856z"/>
			</g>
			<g>
				<path style="fill:#FFF5CB;" d="M374.945,346.856l-19.814-22.526c19.652-17.286,30.924-42.191,30.924-68.33      s-11.271-51.044-30.924-68.33l19.814-22.526c26.125,22.98,41.109,56.096,41.109,90.856S401.07,323.876,374.945,346.856z"/>
			</g>
		</g>
	</g>
</g>















</svg>
